<svg width="298" height="98" viewBox="0 0 298 98" fill="none" xmlns="http://www.w3.org/2000/svg">
<g id="lapa-logo">
<g id="logo-1.0">
<path id="face" fill-rule="evenodd" clip-rule="evenodd" d="M90.8491 18.5768C88.9257 19.922 87.7112 20.6309 85.8618 21.0624C86.026 18.5651 86.7349 15.4388 88.3983 11.8854L90.0486 8.35672L86.7698 10.4501C85.7471 11.1024 83.552 11.9828 81.4237 12.8341C80.3617 13.2597 79.3071 13.6897 78.3032 14.1212C70.9029 5.22316 59.4117 0.212646 44.8553 0.212646C25.3856 0.212646 10.8073 10.1886 4.9397 26.2255C4.33681 26.4129 3.99687 26.5204 3.97363 26.532C3.64531 26.6409 3.38381 26.8792 3.23128 27.1857C-2.17729 38.2164 1.1771 44.7828 1.32382 45.0545C1.51123 45.406 1.841 45.6167 2.19838 45.6908C3.25888 75.0463 21.2831 97.683 44.1681 97.683C68.5873 97.683 85.9301 77.1804 87.4729 47.3135C87.5063 47.3135 87.5354 47.3425 87.5688 47.3425C87.762 47.3425 87.961 47.296 88.1426 47.206C88.5233 47.0186 88.7833 46.6612 88.8458 46.2413C89.5896 41.1161 89.0782 37.1951 88.2952 34.3347C90.605 30.7435 91.4912 25.749 92.0694 22.4178C92.2626 21.3065 92.4326 20.3462 92.5909 19.8305L93.573 16.6693L90.8491 18.5768Z" fill="url(#paint0_linear_0_902)"/>
<path id="mask" fill-rule="evenodd" clip-rule="evenodd" d="M79.875 58.5781C73.7677 82.1459 62.5554 68.5831 46.1438 68.5831C29.7322 68.5831 15.5171 84.2901 10.1652 58.5781C6.36917 40.3447 28.6078 43.8124 45.0194 43.8124C61.4252 43.8124 84.3916 41.1277 79.875 58.5781Z" fill="white"/>
<path id="eye" fill-rule="evenodd" clip-rule="evenodd" d="M29.9196 60.0308C29.9196 62.4249 27.9787 60.3547 25.5832 60.3547C23.189 60.3547 21.2482 62.4249 21.2482 60.0308C21.2482 57.6352 23.189 55.6958 25.5832 55.6958C27.9787 55.6958 29.9196 57.6352 29.9196 60.0308Z" fill="#6C60C9"/>
<path id="eye_2" fill-rule="evenodd" clip-rule="evenodd" d="M68.4681 60.0308C68.4681 62.4249 66.5272 60.3547 64.1331 60.3547C61.7376 60.3547 59.7967 62.4249 59.7967 60.0308C59.7967 57.6352 61.7376 55.6958 64.1331 55.6958C66.5272 55.6958 68.4681 57.6352 68.4681 60.0308Z" fill="#6C60C9"/>
<path id="Path" fill-rule="evenodd" clip-rule="evenodd" d="M75.1536 17.0107C77.4518 15.279 84.9422 12.959 87.3712 11.4089C85.577 15.2398 84.8288 18.6044 84.6981 21.3007C84.6414 21.3065 84.6066 21.3225 84.5499 21.3283C84.2216 21.3748 83.886 21.4358 83.5577 21.4982V21.5273C83.4153 21.5563 83.273 21.6014 83.132 21.629C83.1262 21.6188 83.1204 21.6072 83.1146 21.5898C80.5607 22.1462 78.0126 23.1732 75.8509 24.6086C74.1875 24.058 72.4515 23.6149 70.7155 23.1674C71.3111 20.846 72.9396 18.6726 75.1536 17.0107Z" fill="white"/>
<path id="Path_2" fill-rule="evenodd" clip-rule="evenodd" d="M87.8419 32.86C87.0138 30.5109 86.0826 29.1714 85.8952 28.9158C85.8894 28.91 85.8894 28.9041 85.8836 28.9041C85.8778 28.8983 85.872 28.8867 85.8676 28.8823C85.8502 28.8591 85.8269 28.8533 85.8095 28.8359C85.8095 28.8301 85.8051 28.8242 85.8051 28.8199C85.6962 28.6993 85.5712 28.5976 85.4303 28.5293C82.8314 27.2306 80.1017 26.096 77.2645 25.0965C79.5729 23.7353 82.2241 22.8099 84.7098 22.4525C87.6719 22.021 89.0448 21.2206 91.5013 19.5063C90.8665 21.5504 90.39 28.2068 87.8419 32.86Z" fill="white"/>
<path id="top" fill-rule="evenodd" clip-rule="evenodd" d="M87.563 46.0596C87.563 46.0596 49.565 24.9658 2.45403 44.4529C2.45403 44.4529 -0.798663 38.3194 4.38908 27.7463C4.38908 27.7463 50.1839 12.3284 84.8565 29.6756C84.8565 29.6756 89.1523 35.135 87.563 46.0596Z" fill="white"/>
</g>
<g id="lapa">
<path id="ninja" fill-rule="evenodd" clip-rule="evenodd" d="M128.426 18.7371H133.89V77.8799H128.426V18.7371ZM187.81 35.2103V77.8799H182.426V70.5674C177.551 76.4067 171.98 79.3263 165.712 79.3263C159.444 79.3263 154.154 77.0898 149.841 72.6165C145.529 68.1433 143.372 62.813 143.372 56.6255C143.372 50.4379 145.542 45.1344 149.881 40.7147C154.221 36.2951 159.417 34.0853 165.471 34.0853C172.435 34.0853 178.087 37.0585 182.426 43.0049V35.2103H187.81ZM177.846 44.4112C181.113 47.7594 182.747 51.871 182.747 56.746C182.747 61.7817 181.087 65.9603 177.765 69.2817C174.444 72.6031 170.466 74.2638 165.832 74.2638C161.198 74.2638 157.221 72.5362 153.899 69.0808C150.578 65.6254 148.917 61.5407 148.917 56.8263C148.917 52.112 150.551 48.0273 153.819 44.5719C157.087 41.1165 161.091 39.3888 165.832 39.3888C170.573 39.3888 174.578 41.0629 177.846 44.4112ZM200.265 35.2103H205.73V43.0049C210.069 37.0585 215.721 34.0853 222.685 34.0853C228.685 34.0853 233.855 36.2951 238.194 40.7147C242.533 45.1344 244.703 50.4513 244.703 56.6656C244.703 62.8799 242.56 68.2103 238.274 72.6567C233.988 77.1032 228.846 79.3263 222.846 79.3263C216.31 79.3263 210.605 76.4067 205.73 70.5674V93.4692H200.265V35.2103ZM234.297 44.4915C237.591 47.8933 239.238 51.9781 239.238 56.746C239.238 61.621 237.564 65.7594 234.216 69.1612C230.868 72.563 226.877 74.2638 222.243 74.2638C217.609 74.2638 213.631 72.5898 210.31 69.2415C206.988 65.8933 205.328 61.7549 205.328 56.8263C205.328 51.8978 206.948 47.7594 210.189 44.4112C213.43 41.0629 217.435 39.3888 222.203 39.3888C226.971 39.3888 231.002 41.0897 234.297 44.4915ZM297.497 35.2103V77.8799H292.113V70.5674C287.238 76.4067 281.667 79.3263 275.399 79.3263C269.131 79.3263 263.841 77.0898 259.529 72.6165C255.216 68.1433 253.06 62.813 253.06 56.6255C253.06 50.4379 255.23 45.1344 259.569 40.7147C263.908 36.2951 269.105 34.0853 275.158 34.0853C282.122 34.0853 287.774 37.0585 292.113 43.0049V35.2103H297.497ZM287.533 44.4112C290.801 47.7594 292.435 51.871 292.435 56.746C292.435 61.7817 290.774 65.9603 287.453 69.2817C284.131 72.6031 280.154 74.2638 275.52 74.2638C270.886 74.2638 266.908 72.5362 263.587 69.0808C260.265 65.6254 258.605 61.5407 258.605 56.8263C258.605 52.112 260.238 48.0273 263.506 44.5719C266.774 41.1165 270.779 39.3888 275.52 39.3888C280.261 39.3888 284.265 41.0629 287.533 44.4112Z" fill="white"/>
</g>
</g>
<defs>
<linearGradient id="paint0_linear_0_902" x1="-14.1467" y1="0.587562" x2="-14.1467" y2="127.918" gradientUnits="userSpaceOnUse">
<stop stop-color="#617BE0"/>
<stop offset="1" stop-color="#734CB9"/>
</linearGradient>
</defs>
</svg>
